<?xml version="1.0" standalone="no"?>
<!DOCTYPE svg PUBLIC "-//W3C//DTD SVG 20010904//EN"
 "http://www.w3.org/TR/2001/REC-SVG-20010904/DTD/svg10.dtd">
<svg version="1.0" xmlns="http://www.w3.org/2000/svg"
 width="500.000000pt" height="500.000000pt" viewBox="0 0 500.000000 500.000000"
 preserveAspectRatio="xMidYMid meet">
<metadata>
Created by potrace 1.14, written by Peter Selinger 2001-2017
</metadata>
<g transform="translate(0.000000,500.000000) scale(0.100000,-0.100000)"
fill="#000000" stroke="none">
<path d="M0 2500 l0 -2500 2500 0 2500 0 0 2500 0 2500 -2500 0 -2500 0 0
-2500z m4100 55 l0 -1595 -1600 0 -1600 0 0 1595 0 1595 1600 0 1600 0 0
-1595z"/>
<path d="M1050 3705 l0 -305 1450 0 1450 0 0 305 0 305 -1450 0 -1450 0 0
-305z"/>
<path d="M1050 2940 l0 -310 1450 0 1450 0 0 310 0 310 -1450 0 -1450 0 0
-310z"/>
<path d="M1050 2170 l0 -310 1450 0 1450 0 0 310 0 310 -1450 0 -1450 0 0
-310z"/>
<path d="M1050 1415 l0 -305 1450 0 1450 0 0 305 0 305 -1450 0 -1450 0 0
-305z"/>
</g>
</svg>
